# xmcd
#
# Track frame offsets:
#	150
#	15853
#	30738
#	46999
#	71967
#	90831
#	116711
#	132209
#	152071
#	179635
#	196184
#	213049
#
# Disc length: 3094 seconds
#
# Revision: 1
# Processed by: cddbd v1.4PL0 Copyright (c) Steve Scherf et al.
# Submitted via: audiograbber 1.82.02
#
DISCID=980c140c
DTITLE=The Badge - The Badge
DYEAR=2003
DGENRE=Blues
TTITLE0=Steady Rolling Man
TTITLE1=She Got Me
TTITLE2=It Hurts Me Too
TTITLE3=Someone Else's Rules
TTITLE4=Help The Poor
TTITLE5=All Because Of You
TTITLE6=I'm A King Bee
TTITLE7=Long Time Dead
TTITLE8=Old Love
TTITLE9=Victim Of Love
TTITLE10=Walking To My Baby
TTITLE11=Leave You Baby
EXTD=
EXTT0=
EXTT1=
EXTT2=
EXTT3=
EXTT4=
EXTT5=
EXTT6=
EXTT7=
EXTT8=
EXTT9=
EXTT10=
EXTT11=
PLAYORDER=
